<?xml version="1.0" standalone="no"?>
<!DOCTYPE svg PUBLIC "-//W3C//DTD SVG 20010904//EN"
 "http://www.w3.org/TR/2001/REC-SVG-20010904/DTD/svg10.dtd">
<svg version="1.0" xmlns="http://www.w3.org/2000/svg"
 width="16.000000pt" height="16.000000pt" viewBox="0 0 16.000000 16.000000"
 preserveAspectRatio="xMidYMid meet">
<metadata>
Created by potrace 1.16, written by Peter Selinger 2001-2019
</metadata>
<g transform="translate(0.000000,16.000000) scale(0.001333,-0.001333)"
fill="#000000" stroke="none">
<path d="M6944 11720 c82 -297 108 -469 108 -710 -1 -328 -62 -621 -196 -933
-26 -60 -159 -333 -296 -607 -137 -274 -272 -553 -300 -619 -179 -426 -300
-982 -300 -1381 l0 -118 128 130 c664 679 1434 1090 2253 1203 226 31 553 31
816 -1 l52 -7 -20 74 c-23 86 -74 199 -121 266 -32 48 -343 451 -778 1008
-416 533 -1332 1700 -1342 1710 -7 7 -9 2 -4 -15z"/>
<path d="M2755 6988 c-15 -44 -791 -1783 -1222 -2738 -173 -383 -184 -417
-184 -598 -1 -158 40 -298 127 -434 24 -37 110 -136 191 -219 81 -84 171 -175
198 -203 28 -29 233 -238 456 -466 223 -228 432 -444 465 -480 32 -36 168
-173 301 -304 237 -235 242 -239 249 -210 14 61 75 174 119 219 52 53 132 93
203 102 133 15 298 -74 406 -219 26 -35 53 -70 60 -78 7 -9 10 -22 8 -30 -10
-32 -164 -375 -202 -450 -22 -44 -40 -84 -40 -89 0 -12 95 -48 174 -66 53 -12
439 -44 1196 -100 242 -18 405 -37 590 -71 191 -35 539 -116 726 -170 143 -41
242 -69 329 -94 17 -4 149 -44 295 -88 535 -162 611 -183 627 -166 20 20 46
17 79 -8 27 -21 38 -23 164 -22 119 0 145 4 220 28 258 84 471 275 590 528 44
95 71 198 95 368 21 148 77 428 110 550 14 52 27 102 29 111 10 38 49 165 59
189 5 14 12 33 14 43 2 10 8 28 15 40 7 12 13 30 15 40 2 10 14 42 26 70 13
29 35 77 48 107 13 30 47 102 75 160 l51 105 -95 190 c-591 1183 -1291 1856
-2223 2139 -124 37 -353 86 -509 108 -151 21 -774 18 -965 -5 -283 -34 -711
-110 -939 -168 -43 -11 -80 -18 -82 -16 -2 2 -22 71 -45 153 -223 814 -706
1501 -1454 2065 -114 86 -303 219 -321 226 -7 3 -19 -16 -29 -49z"/>
</g>
</svg>
